<svg xmlns="http://www.w3.org/2000/svg" 
     xmlns:xlink="http://www.w3.org/1999/xlink"
     viewBox="0 0 1200 1200"
     width="1200"
     height="1200">
  <title>Array Factor Analysis</title>
  <defs>
    <style>
      .title { font-family: Arial, sans-serif; font-size: 24px; font-weight: bold; fill: #2c3e50; }
      .label { font-family: Arial, sans-serif; font-size: 14px; fill: #34495e; }
      .small-label { font-family: Arial, sans-serif; font-size: 12px; fill: #7f8c8d; }
      .grid-line { stroke: #ecf0f1; stroke-width: 1; }
      .axis-line { stroke: #95a5a6; stroke-width: 2; }
      .data-line { stroke: #3498db; stroke-width: 3; fill: none; }
      .data-area { fill: #3498db; opacity: 0.3; }
      .node { fill: #3498db; stroke: #2980b9; stroke-width: 2; }
      .connection { stroke: #95a5a6; stroke-width: 2; fill: none; }
    </style>
    <linearGradient id="blueGradient" x1="0%" y1="0%" x2="0%" y2="100%">
      <stop offset="0%" style="stop-color:#3498db;stop-opacity:1" />
      <stop offset="100%" style="stop-color:#2980b9;stop-opacity:1" />
    </linearGradient>
    <linearGradient id="greenGradient" x1="0%" y1="0%" x2="0%" y2="100%">
      <stop offset="0%" style="stop-color:#2ecc71;stop-opacity:1" />
      <stop offset="100%" style="stop-color:#27ae60;stop-opacity:1" />
    </linearGradient>
    <linearGradient id="purpleGradient" x1="0%" y1="0%" x2="0%" y2="100%">
      <stop offset="0%" style="stop-color:#9b59b6;stop-opacity:1" />
      <stop offset="100%" style="stop-color:#8e44ad;stop-opacity:1" />
    </linearGradient>
  </defs>
  <rect width="1200" height="1200" fill="#ffffff"/>
  <circle cx="600.0" cy="600.0" r="100" fill="none" stroke="#ecf0f1" stroke-width="1"/>
  <circle cx="600.0" cy="600.0" r="200" fill="none" stroke="#ecf0f1" stroke-width="1"/>
  <circle cx="600.0" cy="600.0" r="300" fill="none" stroke="#ecf0f1" stroke-width="1"/>
  <circle cx="600.0" cy="600.0" r="400" fill="none" stroke="#ecf0f1" stroke-width="1"/>
  <line x1="600.0" y1="600.0" x2="1000.0" y2="600.0" class="grid-line"/>
  <line x1="600.0" y1="600.0" x2="946.4101615137755" y2="800.0" class="grid-line"/>
  <line x1="600.0" y1="600.0" x2="800.0" y2="946.4101615137754" class="grid-line"/>
  <line x1="600.0" y1="600.0" x2="600.0" y2="1000.0" class="grid-line"/>
  <line x1="600.0" y1="600.0" x2="400.0000000000001" y2="946.4101615137755" class="grid-line"/>
  <line x1="600.0" y1="600.0" x2="253.5898384862245" y2="800.0" class="grid-line"/>
  <line x1="600.0" y1="600.0" x2="200.0" y2="600.0" class="grid-line"/>
  <line x1="600.0" y1="600.0" x2="253.58983848622455" y2="399.99999999999994" class="grid-line"/>
  <line x1="600.0" y1="600.0" x2="399.99999999999983" y2="253.5898384862246" class="grid-line"/>
  <line x1="600.0" y1="600.0" x2="599.9999999999999" y2="200.0" class="grid-line"/>
  <line x1="600.0" y1="600.0" x2="800.0" y2="253.58983848622455" class="grid-line"/>
  <line x1="600.0" y1="600.0" x2="946.4101615137754" y2="399.99999999999983" class="grid-line"/>
  <polygon points="960.0,600.0 958.6300913130284,631.3760673891569 954.5307910843949,662.513343960095 947.7332974640647,693.1748562369074 938.289343482927,723.1272515972407 926.270803333194,752.1425742266517 773.2050807568878,700.0 761.5974545335769,713.1517558199114 744.9984490277924,721.6681451004982 724.8528137423857,724.8528137423857 702.8460175498462,722.5671108990365 680.7053728061003,715.2592173064114 660.0,703.9230484541326 659.4647238046132,727.5225117251823 654.723222932107,750.3508193257453 645.69930156368,770.5521153060657 632.8684799744665,786.4064129176604 617.1935677560685,796.5233787229341 600.0,800.0 582.8064322439315,796.5233787229341 567.1315200255335,786.4064129176604 554.30069843632,770.5521153060657 545.276777067893,750.3508193257453 540.5352761953869,727.5225117251823 540.0,703.9230484541326 519.2946271938997,715.2592173064114 497.1539824501537,722.5671108990365 475.1471862576143,724.8528137423857 455.0015509722076,721.6681451004982 438.4025454664231,713.1517558199114 426.79491924311225,700.0 421.2089777103546,683.3716229030227 422.1330709977411,664.7382678171622 429.4478846939342,645.6993015636801 442.4307595180467,627.7837084267088 459.8299033892866,612.263294418771 480.0,600.0 459.82990338928664,587.7367055812291 442.43075951804667,572.2162915732911 429.4478846939342,554.30069843632 422.13307099774113,535.2617321828378 421.2089777103546,516.6283770969774 426.7949192431123,500.0 438.402545466423,486.84824418008856 455.0015509722076,478.33185489950176 475.1471862576142,475.14718625761424 497.15398245015365,477.4328891009635 519.2946271938996,484.7407826935885 539.9999999999999,496.07695154586736 540.5352761953869,472.4774882748176 545.276777067893,449.6491806742546 554.30069843632,429.4478846939342 567.1315200255335,413.5935870823396 582.8064322439315,403.4766212770659 600.0,400.0 617.1935677560684,403.4766212770659 632.8684799744664,413.5935870823395 645.69930156368,429.44788469393416 654.7232229321071,449.6491806742547 659.4647238046131,472.4774882748178 660.0,496.07695154586736 680.7053728061003,484.7407826935886 702.8460175498462,477.43288910096356 724.8528137423857,475.1471862576143 744.9984490277923,478.3318548995017 761.5974545335769,486.8482441800885 773.2050807568877,499.9999999999999 926.270803333194,447.85742577334827 938.289343482927,476.87274840275927 947.7332974640647,506.82514376309257 954.5307910843949,537.486656039905 958.6300913130284,568.623932610843 960.0,599.9999999999999" fill="url(#blueGradient)" opacity="0.4" stroke="#2980b9" stroke-width="2"/>
  <text x="600.0" y="50" text-anchor="middle" class="title">Array Factor Analysis</text>
  <text x="600.0" y="80" text-anchor="middle" class="label">Reduced Sidelobes with Non-Periodic Layout</text>
</svg>