<svg xmlns="http://www.w3.org/2000/svg" 
     xmlns:xlink="http://www.w3.org/1999/xlink"
     viewBox="0 0 1200 800"
     width="1200"
     height="800">
  <title>Frequency Response (1-10 GHz)</title>
  <defs>
    <style>
      .title { font-family: Arial, sans-serif; font-size: 24px; font-weight: bold; fill: #2c3e50; }
      .label { font-family: Arial, sans-serif; font-size: 14px; fill: #34495e; }
      .small-label { font-family: Arial, sans-serif; font-size: 12px; fill: #7f8c8d; }
      .grid-line { stroke: #ecf0f1; stroke-width: 1; }
      .axis-line { stroke: #95a5a6; stroke-width: 2; }
      .data-line { stroke: #3498db; stroke-width: 3; fill: none; }
      .data-area { fill: #3498db; opacity: 0.3; }
      .node { fill: #3498db; stroke: #2980b9; stroke-width: 2; }
      .connection { stroke: #95a5a6; stroke-width: 2; fill: none; }
    </style>
    <linearGradient id="blueGradient" x1="0%" y1="0%" x2="0%" y2="100%">
      <stop offset="0%" style="stop-color:#3498db;stop-opacity:1" />
      <stop offset="100%" style="stop-color:#2980b9;stop-opacity:1" />
    </linearGradient>
    <linearGradient id="greenGradient" x1="0%" y1="0%" x2="0%" y2="100%">
      <stop offset="0%" style="stop-color:#2ecc71;stop-opacity:1" />
      <stop offset="100%" style="stop-color:#27ae60;stop-opacity:1" />
    </linearGradient>
    <linearGradient id="purpleGradient" x1="0%" y1="0%" x2="0%" y2="100%">
      <stop offset="0%" style="stop-color:#9b59b6;stop-opacity:1" />
      <stop offset="100%" style="stop-color:#8e44ad;stop-opacity:1" />
    </linearGradient>
  </defs>
  <rect width="1200" height="800" fill="#ffffff"/>
  <line x1="100" y1="100.0" x2="1100" y2="100.0" class="grid-line"/>
  <line x1="100" y1="220.0" x2="1100" y2="220.0" class="grid-line"/>
  <line x1="100" y1="340.0" x2="1100" y2="340.0" class="grid-line"/>
  <line x1="100" y1="460.0" x2="1100" y2="460.0" class="grid-line"/>
  <line x1="100" y1="580.0" x2="1100" y2="580.0" class="grid-line"/>
  <line x1="100" y1="700.0" x2="1100" y2="700.0" class="grid-line"/>
  <line x1="100" y1="700" x2="1100" y2="700" class="axis-line"/>
  <line x1="100" y1="100" x2="100" y2="700" class="axis-line"/>
  <polyline points="100.0,115.61723384187394 110.0,114.44745728486453 120.0,113.30916931261652 130.0,112.20467456932556 140.0,111.136209279446 150.0,110.10593672009952 160.0,109.11594284117928 170.0,108.16823204201353 180.0,107.26472311314171 190.0,106.40724535141976 200.0,105.59753485631882 210.0,104.83723101491671 220.0,104.12787318269989 230.0,103.470897566894 240.0,102.86763431863517 250.0,102.319304839869 260.0,101.827019310428 270.0,101.39177444029747 280.0,101.01445145161802 290.0,100.69581429451227 300.0,100.43650810034626 310.0,100.23705787555946 320.0,100.09786743870575 330.0,100.01921860285904 340.0,100.0012706050378 350.0,100.0440597838051 360.0,100.14749950569467 370.0,100.3113803406145 380.0,100.53537048587145 390.0,100.81901643795777 400.0,101.16174391074105 410.0,101.56285899819738 420.0,102.02154957933408 430.0,102.53688696245672 440.0,103.10782776545318 450.0,103.73321602828548 460.0,104.41178555341378 470.0,105.14216246941385 480.0,105.92286801259763 490.0,106.75232152100375 500.0,107.62884363469846 510.0,108.55065969590521 520.0,109.51590334208083 530.0,110.52262028466134 540.0,111.56877226582867 550.0,112.65224118528681 560.0,113.77083338869045 570.0,114.92228410904568 580.0,116.10426205208967 590.0,117.31437411636443 600.0,118.55017023843004 610.0,119.80914835340548 620.0,121.08875946079502 630.0,122.38641278534419 640.0,123.69948102247304 650.0,125.0253056576712 660.0,126.36120234908117 670.0,127.70446636237261 680.0,129.05237804690637 690.0,130.40220834209686 700.0,131.75122430282738 710.0,133.09669463273053 720.0,134.43589521412957 730.0,135.76611462344624 740.0,137.08465962090702 750.0,138.38886060343293 760.0,139.67607700967437 770.0,140.94370266624503 780.0,142.18917106433253 790.0,143.40996055600192 800.0,144.60359945967105 810.0,145.76767106442128 820.0,146.89981852301116 830.0,147.997749623687 840.0,149.05924143112827 850.0,150.08214478713217 860.0,151.06438866192423 870.0,152.00398434728652 880.0,152.8990294830122 890.0,153.74771190853426 900.0,154.54831333193226 910.0,155.29921280888595 920.0,155.99889002453335 930.0,156.64592837158966 940.0,157.23901781849213 950.0,157.77695756176718 960.0,158.25865845724604 970.0,158.68314522521064 980.0,159.04955842500124 990.0,159.35715619508994 1000.0,159.60531575509708 1010.0,159.79353466670898 1020.0,159.92143185094278 1030.0,159.98874835970275 1040.0,159.9953479000602 1050.0,159.9412171102009 1060.0,159.8264655864782 1070.0,159.65132566151738 1080.0,159.4161519338221 1090.0,159.12142054983303 1100.0,158.76772823989415" class="data-line"/>
  <line x1="100.0" y1="700" x2="100.0" y2="710" class="axis-line"/>
  <text x="100.0" y="730" text-anchor="middle" class="label">1 GHz</text>
  <line x1="211.1111111111111" y1="700" x2="211.1111111111111" y2="710" class="axis-line"/>
  <text x="211.1111111111111" y="730" text-anchor="middle" class="label">2 GHz</text>
  <line x1="544.4444444444443" y1="700" x2="544.4444444444443" y2="710" class="axis-line"/>
  <text x="544.4444444444443" y="730" text-anchor="middle" class="label">5 GHz</text>
  <line x1="1100.0" y1="700" x2="1100.0" y2="710" class="axis-line"/>
  <text x="1100.0" y="730" text-anchor="middle" class="label">10 GHz</text>
  <text x="100" y="760" text-anchor="middle" class="label">Frequency (GHz)</text>
  <text x="50" y="400.0" text-anchor="middle" class="label" transform="rotate(-90 50 400.0)">Response</text>
  <text x="600.0" y="50" text-anchor="middle" class="title">Frequency Response</text>
</svg>