<svg xmlns="http://www.w3.org/2000/svg" 
     xmlns:xlink="http://www.w3.org/1999/xlink"
     viewBox="0 0 1400 800"
     width="1400"
     height="800">
  <title>Scalability: 10 to 1000 Elements</title>
  <defs>
    <style>
      .title { font-family: Arial, sans-serif; font-size: 24px; font-weight: bold; fill: #2c3e50; }
      .label { font-family: Arial, sans-serif; font-size: 14px; fill: #34495e; }
      .small-label { font-family: Arial, sans-serif; font-size: 12px; fill: #7f8c8d; }
      .grid-line { stroke: #ecf0f1; stroke-width: 1; }
      .axis-line { stroke: #95a5a6; stroke-width: 2; }
      .data-line { stroke: #3498db; stroke-width: 3; fill: none; }
      .data-area { fill: #3498db; opacity: 0.3; }
      .node { fill: #3498db; stroke: #2980b9; stroke-width: 2; }
      .connection { stroke: #95a5a6; stroke-width: 2; fill: none; }
    </style>
    <linearGradient id="blueGradient" x1="0%" y1="0%" x2="0%" y2="100%">
      <stop offset="0%" style="stop-color:#3498db;stop-opacity:1" />
      <stop offset="100%" style="stop-color:#2980b9;stop-opacity:1" />
    </linearGradient>
    <linearGradient id="greenGradient" x1="0%" y1="0%" x2="0%" y2="100%">
      <stop offset="0%" style="stop-color:#2ecc71;stop-opacity:1" />
      <stop offset="100%" style="stop-color:#27ae60;stop-opacity:1" />
    </linearGradient>
    <linearGradient id="purpleGradient" x1="0%" y1="0%" x2="0%" y2="100%">
      <stop offset="0%" style="stop-color:#9b59b6;stop-opacity:1" />
      <stop offset="100%" style="stop-color:#8e44ad;stop-opacity:1" />
    </linearGradient>
  </defs>
  <rect width="1400" height="800" fill="#ffffff"/>
  <circle cx="350.0" cy="400.0" r="3" fill="url(#blueGradient)" opacity="0.7"/>
  <circle cx="331.3458085835033" cy="417.08862611788027" r="3" fill="url(#blueGradient)" opacity="0.7"/>
  <circle cx="353.1281313543276" cy="364.35992712928226" r="3" fill="url(#blueGradient)" opacity="0.7"/>
  <circle cx="376.660025512764" cy="434.77417201974436" r="3" fill="url(#blueGradient)" opacity="0.7"/>
  <circle cx="300.1771458774657" cy="391.18619224825784" r="3" fill="url(#blueGradient)" opacity="0.7"/>
  <circle cx="397.7306324075461" cy="369.639059138826" r="3" fill="url(#blueGradient)" opacity="0.7"/>
  <circle cx="333.9114309707242" cy="459.8427768957142" r="3" fill="url(#blueGradient)" opacity="0.7"/>
  <circle cx="319.15191362122096" cy="340.5997006171906" r="3" fill="url(#blueGradient)" opacity="0.7"/>
  <circle cx="417.2115519862054" cy="424.5480606078283" r="3" fill="url(#blueGradient)" opacity="0.7"/>
  <circle cx="279.8460315174121" cy="428.95549526677206" r="3" fill="url(#blueGradient)" opacity="0.7"/>
  <text x="350.0" y="520.0" text-anchor="middle" class="label">10 Elements</text>
  <circle cx="700.0" cy="400.0" r="3" fill="url(#blueGradient)" opacity="0.7"/>
  <circle cx="691.1515400822661" cy="408.10584709233143" r="3" fill="url(#blueGradient)" opacity="0.7"/>
  <circle cx="701.4838029849793" cy="383.0944290631234" r="3" fill="url(#blueGradient)" opacity="0.7"/>
  <circle cx="712.6459604647799" cy="416.4948380993335" r="3" fill="url(#blueGradient)" opacity="0.7"/>
  <circle cx="676.3669452163723" cy="395.819243896847" r="3" fill="url(#blueGradient)" opacity="0.7"/>
  <circle cx="722.6406268852138" cy="385.5985412459524" r="3" fill="url(#blueGradient)" opacity="0.7"/>
  <circle cx="692.3685216361966" cy="428.38592147496365" r="3" fill="url(#blueGradient)" opacity="0.7"/>
  <circle cx="685.3674678378164" cy="371.82396403816426" r="3" fill="url(#blueGradient)" opacity="0.7"/>
  <circle cx="731.8812384026835" cy="411.6441675490892" r="3" fill="url(#blueGradient)" opacity="0.7"/>
  <circle cx="666.7230509043034" cy="413.7347973731837" r="3" fill="url(#blueGradient)" opacity="0.7"/>
  <circle cx="716.0852400447068" cy="365.63046330390586" r="3" fill="url(#blueGradient)" opacity="0.7"/>
  <circle cx="711.9096271515238" cy="437.9757920406104" r="3" fill="url(#blueGradient)" opacity="0.7"/>
  <circle cx="664.0348754638617" cy="379.15510093332034" r="3" fill="url(#blueGradient)" opacity="0.7"/>
  <circle cx="742.2579522684608" cy="390.7120793459199" r="3" fill="url(#blueGradient)" opacity="0.7"/>
  <circle cx="674.1746350563465" cy="436.7294231581046" r="3" fill="url(#blueGradient)" opacity="0.7"/>
  <circle cx="694.0302099520529" cy="353.9092025803043" r="3" fill="url(#blueGradient)" opacity="0.7"/>
  <circle cx="736.7011135073948" cy="430.93587346944196" r="3" fill="url(#blueGradient)" opacity="0.7"/>
  <circle cx="650.5648404116597" cy="402.04083229965676" r="3" fill="url(#blueGradient)" opacity="0.7"/>
  <circle cx="736.0903640753895" cy="364.0905914709552" r="3" fill="url(#blueGradient)" opacity="0.7"/>
  <circle cx="697.5797855462714" cy="452.2507661379043" r="3" fill="url(#blueGradient)" opacity="0.7"/>
  <circle cx="665.6193328836157" cy="358.793571755946" r="3" fill="url(#blueGradient)" opacity="0.7"/>
  <circle cx="754.4991728817919" cy="407.3375851068701" r="3" fill="url(#blueGradient)" opacity="0.7"/>
  <circle cx="653.7950852402216" cy="432.1419640352237" r="3" fill="url(#blueGradient)" opacity="0.7"/>
  <circle cx="712.6364659905826" cy="343.85447722864404" r="3" fill="url(#blueGradient)" opacity="0.7"/>
  <circle cx="729.2231054899852" cy="451.00990203402864" r="3" fill="url(#blueGradient)" opacity="0.7"/>
  <circle cx="642.8403111247849" cy="381.7580163444703" r="3" fill="url(#blueGradient)" opacity="0.7"/>
  <circle cx="755.5488839673536" cy="374.34222359631514" r="3" fill="url(#blueGradient)" opacity="0.7"/>
  <circle cx="675.9212178669097" cy="457.51706052109387" r="3" fill="url(#blueGradient)" opacity="0.7"/>
  <circle cx="678.515836308271" cy="340.2469188203069" r="3" fill="url(#blueGradient)" opacity="0.7"/>
  <circle cx="757.1991012543322" cy="430.0709629991567" r="3" fill="url(#blueGradient)" opacity="0.7"/>
  <circle cx="636.4421766413749" cy="416.74524081384953" r="3" fill="url(#blueGradient)" opacity="0.7"/>
  <circle cx="736.1422590848426" cy="343.8062538333303" r="3" fill="url(#blueGradient)" opacity="0.7"/>
  <circle cx="711.4888195266344" cy="466.9029672427496" r="3" fill="url(#blueGradient)" opacity="0.7"/>
  <circle cx="645.5043242925592" cy="357.78363671288776" r="3" fill="url(#blueGradient)" opacity="0.7"/>
  <circle cx="769.7333257372632" cy="394.23256715507233" r="3" fill="url(#blueGradient)" opacity="0.7"/>
  <circle cx="651.7826380900004" cy="452.106487220308" r="3" fill="url(#blueGradient)" opacity="0.7"/>
  <circle cx="700.3619099496757" cy="328.0009095808265" r="3" fill="url(#blueGradient)" opacity="0.7"/>
  <circle cx="749.0347769129879" cy="454.07023814533744" r="3" fill="url(#blueGradient)" opacity="0.7"/>
  <circle cx="626.3437659366642" cy="393.1619312955273" r="3" fill="url(#blueGradient)" opacity="0.7"/>
  <circle cx="759.7014210354772" cy="354.70385969704836" r="3" fill="url(#blueGradient)" opacity="0.7"/>
  <circle cx="686.403801502436" cy="474.66688279561987" r="3" fill="url(#blueGradient)" opacity="0.7"/>
  <circle cx="659.0869033549274" cy="334.9606386646445" r="3" fill="url(#blueGradient)" opacity="0.7"/>
  <circle cx="774.999649610919" cy="420.5682414960385" r="3" fill="url(#blueGradient)" opacity="0.7"/>
  <circle cx="629.9848803778663" cy="435.9149415187928" r="3" fill="url(#blueGradient)" opacity="0.7"/>
  <circle cx="727.6834725451591" cy="325.370077396252" r="3" fill="url(#blueGradient)" opacity="0.7"/>
  <circle cx="730.3375311291024" cy="474.5629546423071" r="3" fill="url(#blueGradient)" opacity="0.7"/>
  <circle cx="626.4598974594395" cy="365.13091170787726" r="3" fill="url(#blueGradient)" opacity="0.7"/>
  <circle cx="778.6209017376814" cy="375.77699832898804" r="3" fill="url(#blueGradient)" opacity="0.7"/>
  <circle cx="657.9491691919069" cy="471.7197854733903" r="3" fill="url(#blueGradient)" opacity="0.7"/>
  <circle cx="682.3805728469908" cy="317.8686674478016" r="3" fill="url(#blueGradient)" opacity="0.7"/>
  <circle cx="769.1658870271959" cy="449.1536374212649" r="3" fill="url(#blueGradient)" opacity="0.7"/>
  <circle cx="614.9585117246237" cy="410.580419269057" r="3" fill="url(#blueGradient)" opacity="0.7"/>
  <circle cx="756.1023089718011" cy="334.117294165824" r="3" fill="url(#blueGradient)" opacity="0.7"/>
  <circle cx="703.1646731868849" cy="487.3039795405697" r="3" fill="url(#blueGradient)" opacity="0.7"/>
  <circle cx="638.1180756338474" cy="337.17781095232533" r="3" fill="url(#blueGradient)" opacity="0.7"/>
  <circle cx="788.8772468408232" cy="404.5645365586649" r="3" fill="url(#blueGradient)" opacity="0.7"/>
  <circle cx="630.76015297563" cy="457.18254614864435" r="3" fill="url(#blueGradient)" opacity="0.7"/>
  <circle cx="712.5399055424574" cy="310.2740240009269" r="3" fill="url(#blueGradient)" opacity="0.7"/>
  <circle cx="751.8107690380949" cy="475.2837579540314" r="3" fill="url(#blueGradient)" opacity="0.7"/>
  <circle cx="610.1785361367664" cy="379.30931056088684" r="3" fill="url(#blueGradient)" opacity="0.7"/>
  <circle cx="780.8849725594081" cy="354.2002050870989" r="3" fill="url(#blueGradient)" opacity="0.7"/>
  <circle cx="671.0566706452286" cy="489.1419300097391" r="3" fill="url(#blueGradient)" opacity="0.7"/>
  <circle cx="660.8104232280698" cy="314.0222291959312" r="3" fill="url(#blueGradient)" opacity="0.7"/>
  <circle cx="787.6727708434378" cy="437.22210704183806" r="3" fill="url(#blueGradient)" opacity="0.7"/>
  <circle cx="609.4997072548156" cy="432.0265048520117" r="3" fill="url(#blueGradient)" opacity="0.7"/>
  <circle cx="745.4498242853673" cy="314.59324691554394" r="3" fill="url(#blueGradient)" opacity="0.7"/>
  <circle cx="724.363033967266" cy="494.3951406371633" r="3" fill="url(#blueGradient)" opacity="0.7"/>
  <circle cx="617.6558557626457" cy="346.45149946247057" r="3" fill="url(#blueGradient)" opacity="0.7"/>
  <circle cx="797.6099465483825" cy="383.7427451634073" r="3" fill="url(#blueGradient)" opacity="0.7"/>
  <circle cx="638.5599172912823" cy="478.4927782458102" r="3" fill="url(#blueGradient)" opacity="0.7"/>
  <circle cx="692.2275873013688" cy="299.9020999179196" r="3" fill="url(#blueGradient)" opacity="0.7"/>
  <circle cx="773.8680551466196" cy="469.0471609036605" r="3" fill="url(#blueGradient)" opacity="0.7"/>
  <circle cx="598.1817688427998" cy="398.9763770132829" r="3" fill="url(#blueGradient)" opacity="0.7"/>
  <circle cx="776.2936838205151" cy="331.50712585169697" r="3" fill="url(#blueGradient)" opacity="0.7"/>
  <circle cx="689.9410665126381" cy="502.7366432053181" r="3" fill="url(#blueGradient)" opacity="0.7"/>
  <circle cx="637.6024998306176" cy="316.8943324880191" r="3" fill="url(#blueGradient)" opacity="0.7"/>
  <circle cx="802.8256925745748" cy="419.25816571117423" r="3" fill="url(#blueGradient)" opacity="0.7"/>
  <circle cx="610.5881087591337" cy="455.61936447615614" r="3" fill="url(#blueGradient)" opacity="0.7"/>
  <circle cx="728.5431820109869" cy="297.9348896013546" r="3" fill="url(#blueGradient)" opacity="0.7"/>
  <circle cx="748.2028006559718" cy="495.1445742484596" r="3" fill="url(#blueGradient)" opacity="0.7"/>
  <circle cx="599.5579363144574" cy="362.16626052596183" r="3" fill="url(#blueGradient)" opacity="0.7"/>
  <circle cx="800.240027392327" cy="359.8012822544608" r="3" fill="url(#blueGradient)" opacity="0.7"/>
  <circle cx="652.951807003472" cy="497.9513529041914" r="3" fill="url(#blueGradient)" opacity="0.7"/>
  <circle cx="668.3357870994122" cy="295.3607262000245" r="3" fill="url(#blueGradient)" opacity="0.7"/>
  <circle cx="794.595543892618" cy="456.1042162021694" r="3" fill="url(#blueGradient)" opacity="0.7"/>
  <circle cx="591.7113670752003" cy="422.662126539184" r="3" fill="url(#blueGradient)" opacity="0.7"/>
  <circle cx="764.9195340732404" cy="309.6149675238572" r="3" fill="url(#blueGradient)" opacity="0.7"/>
  <circle cx="713.2605434117839" cy="511.1402626793017" r="3" fill="url(#blueGradient)" opacity="0.7"/>
  <circle cx="614.6619592370694" cy="326.58733897518493" r="3" fill="url(#blueGradient)" opacity="0.7"/>
  <circle cx="813.152654655353" cy="396.46775645709056" r="3" fill="url(#blueGradient)" opacity="0.7"/>
  <circle cx="618.4963619310593" cy="479.48054467306525" r="3" fill="url(#blueGradient)" opacity="0.7"/>
  <circle cx="706.4458925520706" cy="285.70892218021936" r="3" fill="url(#blueGradient)" opacity="0.7"/>
  <circle cx="772.8461328512305" cy="489.11476268621755" r="3" fill="url(#blueGradient)" opacity="0.7"/>
  <circle cx="585.4720335072749" cy="383.40648045045174" r="3" fill="url(#blueGradient)" opacity="0.7"/>
  <circle cx="796.1713050476687" cy="334.5242022925399" r="3" fill="url(#blueGradient)" opacity="0.7"/>
  <circle cx="673.1725013074063" cy="513.8432488727324" r="3" fill="url(#blueGradient)" opacity="0.7"/>
  <circle cx="642.5823400798199" cy="297.3977956899047" r="3" fill="url(#blueGradient)" opacity="0.7"/>
  <circle cx="812.2246128626555" cy="437.0625993128802" r="3" fill="url(#blueGradient)" opacity="0.7"/>
  <circle cx="591.6592611575163" cy="448.7266283161963" r="3" fill="url(#blueGradient)" opacity="0.7"/>
  <circle cx="747.2122246622786" cy="290.33229352977907" r="3" fill="url(#blueGradient)" opacity="0.7"/>
  <text x="700.0" y="560.0" text-anchor="middle" class="label">100 Elements</text>
  <circle cx="1050.0" cy="400.0" r="2" fill="url(#blueGradient)" opacity="0.7"/>
  <circle cx="1041.657591985484" cy="407.6422659283317" r="2" fill="url(#blueGradient)" opacity="0.7"/>
  <circle cx="1051.398942870165" cy="384.0612748676058" r="2" fill="url(#blueGradient)" opacity="0.7"/>
  <circle cx="1061.9227258656838" cy="415.55148249948394" r="2" fill="url(#blueGradient)" opacity="0.7"/>
  <circle cx="1027.7185422697914" cy="396.058345345298" r="2" fill="url(#blueGradient)" opacity="0.7"/>
  <circle cx="1071.3457877344656" cy="386.4221744747128" r="2" fill="url(#blueGradient)" opacity="0.7"/>
  <circle cx="1042.8049731979684" cy="426.76250342023417" r="2" fill="url(#blueGradient)" opacity="0.7"/>
  <circle cx="1036.204316376253" cy="373.4353785392399" r="2" fill="url(#blueGradient)" opacity="0.7"/>
  <circle cx="1080.0579198228832" cy="410.97822644697777" r="2" fill="url(#blueGradient)" opacity="0.7"/>
  <circle cx="1018.6261915163111" cy="412.94929114773515" r="2" fill="url(#blueGradient)" opacity="0.7"/>
  <circle cx="1065.1653097501674" cy="367.59609004793595" r="2" fill="url(#blueGradient)" opacity="0.7"/>
  <circle cx="1061.228504160328" cy="435.8039200971276" r="2" fill="url(#blueGradient)" opacity="0.7"/>
  <circle cx="1016.0917554057039" cy="380.3472406890689" r="2" fill="url(#blueGradient)" opacity="0.7"/>
  <circle cx="1089.8411794774481" cy="391.2432644298365" r="2" fill="url(#blueGradient)" opacity="0.7"/>
  <circle cx="1025.651612428967" cy="434.62883224555463" r="2" fill="url(#blueGradient)" opacity="0.7"/>
  <circle cx="1044.3716279664488" cy="356.5451794589836" r="2" fill="url(#blueGradient)" opacity="0.7"/>
  <circle cx="1084.6021416509013" cy="429.1666212162285" r="2" fill="url(#blueGradient)" opacity="0.7"/>
  <circle cx="1003.3920845680605" cy="401.9241151444691" r="2" fill="url(#blueGradient)" opacity="0.7"/>
  <circle cx="1084.0263215642656" cy="366.14428496095246" r="2" fill="url(#blueGradient)" opacity="0.7"/>
  <circle cx="1047.718199930457" cy="449.26249474440607" r="2" fill="url(#blueGradient)" opacity="0.7"/>
  <circle cx="1017.5855961870498" cy="361.15020688020337" r="2" fill="url(#blueGradient)" opacity="0.7"/>
  <circle cx="1101.3823129516973" cy="406.91794158213503" r="2" fill="url(#blueGradient)" opacity="0.7"/>
  <circle cx="1006.4375885989524" cy="430.3037343066144" r="2" fill="url(#blueGradient)" opacity="0.7"/>
  <circle cx="1061.9137743895656" cy="347.065493486814" r="2" fill="url(#blueGradient)" opacity="0.7"/>
  <circle cx="1077.5518080790644" cy="448.0925968478975" r="2" fill="url(#blueGradient)" opacity="0.7"/>
  <circle cx="996.1093285144295" cy="382.80129287317436" r="2" fill="url(#blueGradient)" opacity="0.7"/>
  <circle cx="1102.371990054214" cy="375.809616419715" r="2" fill="url(#blueGradient)" opacity="0.7"/>
  <circle cx="1027.298306494638" cy="454.22760470451004" r="2" fill="url(#blueGradient)" opacity="0.7"/>
  <circle cx="1029.7445362206088" cy="343.66425480139833" r="2" fill="url(#blueGradient)" opacity="0.7"/>
  <circle cx="1103.9278298329523" cy="428.3511758046846" r="2" fill="url(#blueGradient)" opacity="0.7"/>
  <circle cx="990.0771094742126" cy="415.7875644427663" r="2" fill="url(#blueGradient)" opacity="0.7"/>
  <circle cx="1084.0752486483912" cy="347.0200280336964" r="2" fill="url(#blueGradient)" opacity="0.7"/>
  <circle cx="1060.8317629268154" cy="463.0767224251329" r="2" fill="url(#blueGradient)" opacity="0.7"/>
  <circle cx="998.6209842159008" cy="360.1980309901975" r="2" fill="url(#blueGradient)" opacity="0.7"/>
  <circle cx="1115.745210004679" cy="394.5624121670848" r="2" fill="url(#blueGradient)" opacity="0.7"/>
  <circle cx="1004.5402352300177" cy="449.1264672763866" r="2" fill="url(#blueGradient)" opacity="0.7"/>
  <circle cx="1050.3412119727927" cy="332.1186065671187" r="2" fill="url(#blueGradient)" opacity="0.7"/>
  <circle cx="1096.2304310255245" cy="450.9779094039195" r="2" fill="url(#blueGradient)" opacity="0.7"/>
  <circle cx="980.5562365562023" cy="393.5530069984638" r="2" fill="url(#blueGradient)" opacity="0.7"/>
  <circle cx="1106.2870395475454" cy="357.2943893736075" r="2" fill="url(#blueGradient)" opacity="0.7"/>
  <circle cx="1037.1813811253521" cy="470.39661220645866" r="2" fill="url(#blueGradient)" opacity="0.7"/>
  <circle cx="1011.4267625639047" cy="338.68030207430394" r="2" fill="url(#blueGradient)" opacity="0.7"/>
  <circle cx="1120.7103477686612" cy="419.3919240519085" r="2" fill="url(#blueGradient)" opacity="0.7"/>
  <circle cx="983.9891121728026" cy="433.8609315918089" r="2" fill="url(#blueGradient)" opacity="0.7"/>
  <circle cx="1076.1002282179647" cy="329.63823419661674" r="2" fill="url(#blueGradient)" opacity="0.7"/>
  <circle cx="1078.602498647795" cy="470.2986278038404" r="2" fill="url(#blueGradient)" opacity="0.7"/>
  <circle cx="980.6657264058875" cy="367.1251082864634" r="2" fill="url(#blueGradient)" opacity="0.7"/>
  <circle cx="1124.124497015621" cy="377.1623350103125" r="2" fill="url(#blueGradient)" opacity="0.7"/>
  <circle cx="1010.3540965080922" cy="467.6180622046383" r="2" fill="url(#blueGradient)" opacity="0.7"/>
  <circle cx="1033.3882447726464" cy="322.5658370726041" r="2" fill="url(#blueGradient)" opacity="0.7"/>
  <circle cx="1115.210223658284" cy="446.342493787415" r="2" fill="url(#blueGradient)" opacity="0.7"/>
  <circle cx="969.8221159443801" cy="409.97531495059604" r="2" fill="url(#blueGradient)" opacity="0.7"/>
  <circle cx="1102.8937641522446" cy="337.8851892556475" r="2" fill="url(#blueGradient)" opacity="0.7"/>
  <circle cx="1052.9836824942474" cy="482.3109812769446" r="2" fill="url(#blueGradient)" opacity="0.7"/>
  <circle cx="991.657162197094" cy="340.77067215387467" r="2" fill="url(#blueGradient)" opacity="0.7"/>
  <circle cx="1133.794271912449" cy="404.3034863381411" r="2" fill="url(#blueGradient)" opacity="0.7"/>
  <circle cx="984.720046187665" cy="453.91222152962547" r="2" fill="url(#blueGradient)" opacity="0.7"/>
  <circle cx="1061.822736326014" cy="315.40553856329865" r="2" fill="url(#blueGradient)" opacity="0.7"/>
  <circle cx="1098.8476615004358" cy="470.97820768333634" r="2" fill="url(#blueGradient)" opacity="0.7"/>
  <circle cx="965.3155117416069" cy="380.49263092023756" r="2" fill="url(#blueGradient)" opacity="0.7"/>
  <circle cx="1126.259083457127" cy="356.81953925351263" r="2" fill="url(#blueGradient)" opacity="0.7"/>
  <circle cx="1022.7119673908339" cy="484.04381759725754" r="2" fill="url(#blueGradient)" opacity="0.7"/>
  <circle cx="1013.0517126836497" cy="318.93938031085355" r="2" fill="url(#blueGradient)" opacity="0.7"/>
  <circle cx="1132.6586810517454" cy="435.0933390657803" r="2" fill="url(#blueGradient)" opacity="0.7"/>
  <circle cx="964.6755057340166" cy="430.1948783447485" r="2" fill="url(#blueGradient)" opacity="0.7"/>
  <circle cx="1092.8505052745602" cy="319.47774097980806" r="2" fill="url(#blueGradient)" opacity="0.7"/>
  <circle cx="1072.9696887047094" cy="488.99659207412805" r="2" fill="url(#blueGradient)" opacity="0.7"/>
  <circle cx="972.3651962916848" cy="349.51398953005526" r="2" fill="url(#blueGradient)" opacity="0.7"/>
  <circle cx="1142.027540154157" cy="384.67251314875665" r="2" fill="url(#blueGradient)" opacity="0.7"/>
  <circle cx="992.0737345066711" cy="474.0037010290457" r="2" fill="url(#blueGradient)" opacity="0.7"/>
  <circle cx="1042.6720990328233" cy="305.62679475923665" r="2" fill="url(#blueGradient)" opacity="0.7"/>
  <circle cx="1119.6434702763154" cy="465.0982875955426" r="2" fill="url(#blueGradient)" opacity="0.7"/>
  <circle cx="954.004851067099" cy="399.03491899295193" r="2" fill="url(#blueGradient)" opacity="0.7"/>
  <circle cx="1121.9303749215849" cy="335.4242989690375" r="2" fill="url(#blueGradient)" opacity="0.7"/>
  <circle cx="1040.5163465594426" cy="496.86103611576436" r="2" fill="url(#blueGradient)" opacity="0.7"/>
  <circle cx="991.1710726681879" cy="321.64722526299164" r="2" fill="url(#blueGradient)" opacity="0.7"/>
  <circle cx="1146.9449926662467" cy="418.15677275678075" r="2" fill="url(#blueGradient)" opacity="0.7"/>
  <circle cx="965.7016605131591" cy="452.4384397151682" r="2" fill="url(#blueGradient)" opacity="0.7"/>
  <circle cx="1076.910770075481" cy="303.77209108608565" r="2" fill="url(#blueGradient)" opacity="0.7"/>
  <circle cx="1095.4460362880282" cy="489.7031648589237" r="2" fill="url(#blueGradient)" opacity="0.7"/>
  <circle cx="955.302314202109" cy="364.3300083470166" r="2" fill="url(#blueGradient)" opacity="0.7"/>
  <circle cx="1144.5072041539197" cy="362.1002854495003" r="2" fill="url(#blueGradient)" opacity="0.7"/>
  <circle cx="1005.6425382527755" cy="492.3494211532672" r="2" fill="url(#blueGradient)" opacity="0.7"/>
  <circle cx="1020.1466937827463" cy="301.345146556802" r="2" fill="url(#blueGradient)" opacity="0.7"/>
  <circle cx="1139.1855340753332" cy="452.8955623062802" r="2" fill="url(#blueGradient)" opacity="0.7"/>
  <circle cx="947.9044977779378" cy="421.3660578026195" r="2" fill="url(#blueGradient)" opacity="0.7"/>
  <circle cx="1111.2067236995458" cy="314.78417415780416" r="2" fill="url(#blueGradient)" opacity="0.7"/>
  <circle cx="1062.5021602249215" cy="504.78404453785123" r="2" fill="url(#blueGradient)" opacity="0.7"/>
  <circle cx="969.5425235778104" cy="330.78587941920523" r="2" fill="url(#blueGradient)" opacity="0.7"/>
  <circle cx="1156.6813458880795" cy="396.6697688506751" r="2" fill="url(#blueGradient)" opacity="0.7"/>
  <circle cx="973.1576331067706" cy="474.93497614763305" r="2" fill="url(#blueGradient)" opacity="0.7"/>
  <circle cx="1056.0772457791586" cy="292.24533845935156" r="2" fill="url(#blueGradient)" opacity="0.7"/>
  <circle cx="1118.6799926964284" cy="484.0182039990058" r="2" fill="url(#blueGradient)" opacity="0.7"/>
  <circle cx="942.0219976766512" cy="384.35547973701716" r="2" fill="url(#blueGradient)" opacity="0.7"/>
  <circle cx="1140.671175939689" cy="338.2688259166085" r="2" fill="url(#blueGradient)" opacity="0.7"/>
  <circle cx="1024.7067916695917" cy="507.3324443602891" r="2" fill="url(#blueGradient)" opacity="0.7"/>
  <circle cx="995.8661110807701" cy="303.265714090192" r="2" fill="url(#blueGradient)" opacity="0.7"/>
  <circle cx="1155.8063796949582" cy="434.9429537367166" r="2" fill="url(#blueGradient)" opacity="0.7"/>
  <circle cx="947.8553718476253" cy="445.9399057423185" r="2" fill="url(#blueGradient)" opacity="0.7"/>
  <circle cx="1094.5121122848" cy="296.60429477030794" r="2" fill="url(#blueGradient)" opacity="0.7"/>
  <circle cx="1087.207013762387" cy="506.84398966196244" r="2" fill="url(#blueGradient)" opacity="0.7"/>
  <circle cx="949.8960520747544" cy="346.08154666740046" r="2" fill="url(#blueGradient)" opacity="0.7"/>
  <circle cx="1160.7794163065673" cy="372.0014121288907" r="2" fill="url(#blueGradient)" opacity="0.7"/>
  <circle cx="986.9201274264717" cy="495.9423247378728" r="2" fill="url(#blueGradient)" opacity="0.7"/>
  <circle cx="1031.6168987314397" cy="286.09626174813286" r="2" fill="url(#blueGradient)" opacity="0.7"/>
  <circle cx="1140.9297363202309" cy="471.9151100446444" r="2" fill="url(#blueGradient)" opacity="0.7"/>
  <circle cx="933.8239501111477" cy="408.4335895218409" r="2" fill="url(#blueGradient)" opacity="0.7"/>
  <circle cx="1130.344467236687" cy="314.90730592787105" r="2" fill="url(#blueGradient)" opacity="0.7"/>
  <circle cx="1048.2270703093254" cy="517.5621398253363" r="2" fill="url(#blueGradient)" opacity="0.7"/>
  <circle cx="971.5348193070696" cy="311.70948284880313" r="2" fill="url(#blueGradient)" opacity="0.7"/>
  <circle cx="1168.0348669008144" cy="412.1560764931376" r="2" fill="url(#blueGradient)" opacity="0.7"/>
  <circle cx="954.3211988267004" cy="471.0884449544383" r="2" fill="url(#blueGradient)" opacity="0.7"/>
  <circle cx="1072.6327633622777" cy="282.4255213807557" r="2" fill="url(#blueGradient)" opacity="0.7"/>
  <circle cx="1113.010731976973" cy="502.43850670390543" r="2" fill="url(#blueGradient)" opacity="0.7"/>
  <circle cx="933.8311311379194" cy="366.88212103251897" r="2" fill="url(#blueGradient)" opacity="0.7"/>
  <circle cx="1158.5031196222494" cy="345.71304915322787" r="2" fill="url(#blueGradient)" opacity="0.7"/>
  <circle cx="1006.4750043262869" cy="513.8137722404598" r="2" fill="url(#blueGradient)" opacity="0.7"/>
  <circle cx="1005.0217180443099" cy="286.18895417265315" r="2" fill="url(#blueGradient)" opacity="0.7"/>
  <circle cx="1160.5128929667853" cy="453.76709484537764" r="2" fill="url(#blueGradient)" opacity="0.7"/>
  <circle cx="931.6938036658097" cy="435.15172696946786" r="2" fill="url(#blueGradient)" opacity="0.7"/>
  <circle cx="1113.75730390293" cy="293.72203333225923" r="2" fill="url(#blueGradient)" opacity="0.7"/>
  <circle cx="1074.8796048342863" cy="521.9385306754587" r="2" fill="url(#blueGradient)" opacity="0.7"/>
  <circle cx="948.8712458813189" cy="326.590361052493" r="2" fill="url(#blueGradient)" opacity="0.7"/>
  <circle cx="1174.664553680089" cy="385.76100229144714" r="2" fill="url(#blueGradient)" opacity="0.7"/>
  <circle cx="967.3602533158793" cy="495.0929664485463" r="2" fill="url(#blueGradient)" opacity="0.7"/>
  <circle cx="1046.688848846182" cy="273.55223893624463" r="2" fill="url(#blueGradient)" opacity="0.7"/>
  <circle cx="1138.2061219404422" cy="491.3656393412088" r="2" fill="url(#blueGradient)" opacity="0.7"/>
  <circle cx="922.740970329763" cy="392.1808333315036" r="2" fill="url(#blueGradient)" opacity="0.7"/>
  <circle cx="1149.5084163045574" cy="319.48866486910754" r="2" fill="url(#blueGradient)" opacity="0.7"/>
  <circle cx="1030.9356583271594" cy="527.0769486436513" r="2" fill="url(#blueGradient)" opacity="0.7"/>
  <circle cx="977.9409605142771" cy="293.0070337433575" r="2" fill="url(#blueGradient)" opacity="0.7"/>
  <circle cx="1175.8880882860192" cy="430.33462094194425" r="2" fill="url(#blueGradient)" opacity="0.7"/>
  <circle cx="936.2513562620712" cy="462.9066454977673" r="2" fill="url(#blueGradient)" opacity="0.7"/>
  <circle cx="1091.53884449037" cy="276.3127961412141" r="2" fill="url(#blueGradient)" opacity="0.7"/>
  <circle cx="1103.11813660631" cy="519.7099142238161" r="2" fill="url(#blueGradient)" opacity="0.7"/>
  <circle cx="929.5226278832365" cy="347.414804290191" r="2" fill="url(#blueGradient)" opacity="0.7"/>
  <circle cx="1174.8169620384213" cy="357.23639412421664" r="2" fill="url(#blueGradient)" opacity="0.7"/>
  <circle cx="986.6180356873301" cy="516.2700589140104" r="2" fill="url(#blueGradient)" opacity="0.7"/>
  <circle cx="1018.0812631130797" cy="270.9837442973036" r="2" fill="url(#blueGradient)" opacity="0.7"/>
  <circle cx="1161.0851167890992" cy="473.8383154463331" r="2" fill="url(#blueGradient)" opacity="0.7"/>
  <circle cx="917.7389343628761" cy="420.6642327835414" r="2" fill="url(#blueGradient)" opacity="0.7"/>
  <circle cx="1133.8650585587825" cy="295.04928798272977" r="2" fill="url(#blueGradient)" opacity="0.7"/>
  <circle cx="1059.0851978771732" cy="534.5119295063921" r="2" fill="url(#blueGradient)" opacity="0.7"/>
  <circle cx="952.0968187955796" cy="306.6245904423738" r="2" fill="url(#blueGradient)" opacity="0.7"/>
  <circle cx="1185.7370609016266" cy="402.72952336280684" r="2" fill="url(#blueGradient)" opacity="0.7"/>
  <circle cx="947.71426018049" cy="489.9868180878483" r="2" fill="url(#blueGradient)" opacity="0.7"/>
  <circle cx="1064.688044718931" cy="264.0873024977626" r="2" fill="url(#blueGradient)" opacity="0.7"/>
  <circle cx="1131.2535917962955" cy="510.51630567568293" r="2" fill="url(#blueGradient)" opacity="0.7"/>
  <circle cx="914.9766146596587" cy="373.30383152522245" r="2" fill="url(#blueGradient)" opacity="0.7"/>
  <circle cx="1167.9919521216575" cy="328.23720159776053" r="2" fill="url(#blueGradient)" opacity="0.7"/>
  <circle cx="1011.3418583584154" cy="533.0621963024028" r="2" fill="url(#blueGradient)" opacity="0.7"/>
  <circle cx="988.4193518324463" cy="275.3572153261009" r="2" fill="url(#blueGradient)" opacity="0.7"/>
  <circle cx="1180.0308765410218" cy="450.47743204614835" r="2" fill="url(#blueGradient)" opacity="0.7"/>
  <circle cx="919.5951964773177" cy="450.7797914352808" r="2" fill="url(#blueGradient)" opacity="0.7"/>
  <circle cx="1112.0575179589425" cy="274.06007596962934" r="2" fill="url(#blueGradient)" opacity="0.7"/>
  <circle cx="1089.4387866499778" cy="535.220494406645" r="2" fill="url(#blueGradient)" opacity="0.7"/>
  <circle cx="929.1914059229076" cy="326.6973152120856" r="2" fill="url(#blueGradient)" opacity="0.7"/>
  <circle cx="1189.0393709584646" cy="372.3584855068604" r="2" fill="url(#blueGradient)" opacity="0.7"/>
  <circle cx="965.8811777372644" cy="514.6648321898667" r="2" fill="url(#blueGradient)" opacity="0.7"/>
  <circle cx="1034.5234574061972" cy="258.1815363595339" r="2" fill="url(#blueGradient)" opacity="0.7"/>
  <circle cx="1157.545134310336" cy="494.414215487774" r="2" fill="url(#blueGradient)" opacity="0.7"/>
  <circle cx="906.4772491992036" cy="403.0364457137417" r="2" fill="url(#blueGradient)" opacity="0.7"/>
  <circle cx="1154.10032324974" cy="300.5056649889068" r="2" fill="url(#blueGradient)" opacity="0.7"/>
  <circle cx="1040.4170867078192" cy="544.1255278319373" r="2" fill="url(#blueGradient)" opacity="0.7"/>
  <circle cx="959.4346751324855" cy="286.9074629710627" r="2" fill="url(#blueGradient)" opacity="0.7"/>
  <circle cx="1193.608710900215" cy="422.2831360804181" r="2" fill="url(#blueGradient)" opacity="0.7"/>
  <circle cx="928.6890857198339" cy="480.8186988048569" r="2" fill="url(#blueGradient)" opacity="0.7"/>
  <circle cx="1084.9640690130193" cy="258.0369277662221" r="2" fill="url(#blueGradient)" opacity="0.7"/>
  <circle cx="1120.3223378050297" cy="528.6808797204748" r="2" fill="url(#blueGradient)" opacity="0.7"/>
  <circle cx="910.8115954969184" cy="352.4753953000499" r="2" fill="url(#blueGradient)" opacity="0.7"/>
  <circle cx="1185.13388858473" cy="340.84907307598786" r="2" fill="url(#blueGradient)" opacity="0.7"/>
  <circle cx="990.1365015697558" cy="535.29361239797" r="2" fill="url(#blueGradient)" opacity="0.7"/>
  <circle cx="1002.6145868837173" cy="259.39195391515034" r="2" fill="url(#blueGradient)" opacity="0.7"/>
  <circle cx="1180.2967300942487" cy="471.88019286803916" r="2" fill="url(#blueGradient)" opacity="0.7"/>
  <circle cx="904.9513223675016" cy="435.1124068822337" r="2" fill="url(#blueGradient)" opacity="0.7"/>
  <circle cx="1133.4756442780358" cy="275.775136094392" r="2" fill="url(#blueGradient)" opacity="0.7"/>
  <circle cx="1072.4235322440497" cy="548.4088447556279" r="2" fill="url(#blueGradient)" opacity="0.7"/>
  <circle cx="932.8859399711353" cy="305.44685651150735" r="2" fill="url(#blueGradient)" opacity="0.7"/>
  <circle cx="1200.649802053737" cy="390.585269989539" r="2" fill="url(#blueGradient)" opacity="0.7"/>
  <circle cx="944.9808752010423" cy="509.00909790683045" r="2" fill="url(#blueGradient)" opacity="0.7"/>
  <circle cx="1053.8144802920829" cy="248.2586090082824" r="2" fill="url(#blueGradient)" opacity="0.7"/>
  <circle cx="1149.9632103486133" cy="514.7839560949128" r="2" fill="url(#blueGradient)" opacity="0.7"/>
  <circle cx="898.3376331755785" cy="382.8382259304398" r="2" fill="url(#blueGradient)" opacity="0.7"/>
  <circle cx="1173.7627035421772" cy="309.9622678432471" r="2" fill="url(#blueGradient)" opacity="0.7"/>
  <circle cx="1019.4771751904236" cy="550.4006554694623" r="2" fill="url(#blueGradient)" opacity="0.7"/>
  <circle cx="970.6983203906262" cy="268.1241356004358" r="2" fill="url(#blueGradient)" opacity="0.7"/>
  <circle cx="1197.953537700319" cy="443.7921303656299" r="2" fill="url(#blueGradient)" opacity="0.7"/>
  <circle cx="910.9499382917985" cy="467.83126372805793" r="2" fill="url(#blueGradient)" opacity="0.7"/>
  <circle cx="1106.8638557812415" cy="255.67224138894775" r="2" fill="url(#blueGradient)" opacity="0.7"/>
  <circle cx="1105.7093408246785" cy="545.2186948876755" r="2" fill="url(#blueGradient)" opacity="0.7"/>
  <circle cx="910.460439096779" cy="330.36731411947204" r="2" fill="url(#blueGradient)" opacity="0.7"/>
  <circle cx="1200.3225405921453" cy="356.97519564340973" r="2" fill="url(#blueGradient)" opacity="0.7"/>
  <circle cx="968.0053192724032" cy="533.6146411602391" r="2" fill="url(#blueGradient)" opacity="0.7"/>
  <circle cx="1020.1280773734891" cy="245.68970144998184" r="2" fill="url(#blueGradient)" opacity="0.7"/>
  <circle cx="1176.5880288992553" cy="493.84812698930824" r="2" fill="url(#blueGradient)" opacity="0.7"/>
  <circle cx="892.8609224731733" cy="416.3496273357511" r="2" fill="url(#blueGradient)" opacity="0.7"/>
  <circle cx="1155.0943782241902" cy="281.4961111791228" r="2" fill="url(#blueGradient)" opacity="0.7"/>
  <circle cx="1052.560758433576" cy="558.7748170090108" r="2" fill="url(#blueGradient)" opacity="0.7"/>
  <circle cx="940.5847526927435" cy="284.36132283404527" r="2" fill="url(#blueGradient)" opacity="0.7"/>
  <circle cx="1209.1926407029778" cy="411.38872890241015" r="2" fill="url(#blueGradient)" opacity="0.7"/>
  <text x="1050.0" y="600.0" text-anchor="middle" class="label">1000 Elements</text>
  <text x="700.0" y="50" text-anchor="middle" class="title">Scalability Demonstration</text>
</svg>